<?xml version="1.0" encoding="iso-8859-1"?>
<!-- Generator: Adobe Illustrator 19.0.0, SVG Export Plug-In . SVG Version: 6.00 Build 0)  -->
<svg version="1.1" id="Capa_1" xmlns="http://www.w3.org/2000/svg" xmlns:xlink="http://www.w3.org/1999/xlink" x="0px" y="0px"
	 viewBox="0 0 512.001 512.001" style="enable-background:new 0 0 512.001 512.001;" xml:space="preserve">
<path style="fill:#FFF5CD;" d="M502,226.001v60l-49.71,10.93c-5.17,24.53-14.83,47.77-28.71,68.66l23.34,38.9l-42.43,45.43
	l-18.49-14.1v-239.82c0-9.43-6.51-17.33-15.29-19.44l0.13-0.56c-25.33-36.25-67.36-60-114.84-60s-89.51,23.75-114.84,60l0.13,0.56
	c-8.78,2.11-15.29,10.01-15.29,19.44v239.82l-18.49,14.1l-42.43-45.43l23.34-38.9c-13.87-20.89-23.54-44.13-28.71-68.66L10,286.001
	v-60l49.33-10.83c5.03-24.83,14.74-48.33,28.66-69.48l-22.91-38.18l42.43-42.43l38.18,22.91c21.15-13.92,44.65-23.63,69.48-28.66
	L226,10.001h60l10.83,49.33c24.83,5.03,48.33,14.74,69.48,28.66l38.18-22.91l42.43,42.43l-22.91,38.18
	c13.92,21.15,23.63,44.65,28.66,69.48L502,226.001z"/>
<path style="fill:#FD3C65;" d="M386,482.001c0,11.05-8.95,20-20,20H146c-11.05,0-20-8.95-20-20c0-13.433,0-272.467,0-286
	c0-9.43,6.51-17.33,15.29-19.44c1.51-0.37,3.09-0.56,4.71-0.56h220c1.62,0,3.2,0.19,4.71,0.56c8.78,2.11,15.29,10.01,15.29,19.44
	C386,209.538,386,468.575,386,482.001z"/>
<path style="fill:#FFF5CD;" d="M346,216.001v80H166v-80H346z"/>
<path style="fill:#FEB756;" d="M166,336.001c0,14.166,0,107.679,0,123c41.294,0,143.776,0,180,0v-123
	C304.706,336.001,202.224,336.001,166,336.001z"/>
<path d="M306,266.001c5.52,0,10-4.48,10-10s-4.48-10-10-10s-10,4.48-10,10C296,261.521,300.48,266.001,306,266.001z"/>
<path d="M504.145,216.233l-43.076-9.457c-5.104-21.685-13.593-42.233-25.303-61.241l19.729-32.879
	c2.36-3.935,1.74-8.972-1.504-12.217l-42.43-42.43c-3.245-3.245-8.283-3.864-12.217-1.504l-32.879,19.729
	c-19.008-11.71-39.557-20.199-61.241-25.303l-9.457-43.076c-1.006-4.585-5.071-7.854-9.767-7.854h-60
	c-4.697,0-8.76,3.269-9.768,7.855l-9.457,43.076c-21.685,5.104-42.233,13.593-61.241,25.303l-32.879-19.729
	c-3.936-2.36-8.972-1.741-12.216,1.504l-42.43,42.43c-3.245,3.245-3.865,8.282-1.503,12.217l19.729,32.879
	c-11.71,19.008-20.2,39.556-25.303,61.241l-43.076,9.457C3.269,217.24,0,221.305,0,226.001v60c0,4.695,3.267,8.759,7.853,9.767
	l43.51,9.566c5.221,21.498,13.706,41.776,25.289,60.435l-20.146,33.578c-2.295,3.825-1.778,8.709,1.267,11.97l42.43,45.43
	c3.506,3.755,9.287,4.242,13.372,1.127l2.427-1.851v25.978c0,16.542,13.458,30,30,30h220c16.542,0,30-13.458,30-30v-25.979
	l2.427,1.851c1.803,1.375,3.937,2.048,6.06,2.048c2.686,0,5.354-1.077,7.313-3.175l42.43-45.43c3.045-3.261,3.562-8.145,1.267-11.97
	l-20.149-33.575c11.58-18.645,20.064-38.922,25.288-60.437l43.51-9.566c4.586-1.008,7.853-5.071,7.853-9.767v-60
	C512,221.305,508.731,217.24,504.145,216.233z M376,482.001c0,5.514-4.486,10-10,10H146c-5.514,0-10-4.486-10-10v-286
	c0-4.642,3.136-8.638,7.665-9.727c0.742-0.182,1.528-0.273,2.335-0.273h220c0.808,0,1.593,0.092,2.373,0.282
	c4.49,1.08,7.627,5.076,7.627,9.718V482.001z M162.29,166.001c24.358-25.33,58.142-40,93.71-40c35.567,0,69.351,14.67,93.71,40
	H162.29z M492,277.961l-41.857,9.203c-3.839,0.844-6.827,3.858-7.638,7.704c-4.95,23.489-14.12,45.422-27.254,65.188
	c-2.136,3.214-2.231,7.37-0.246,10.679l19.463,32.438l-31.109,33.309L396,430.871v-234.87c0-12.289-7.359-23.064-18.353-27.654
	C349.415,129.27,304.13,106.001,256,106.001c-48.132,0-93.419,23.271-121.651,62.352C123.346,172.955,116,183.723,116,196.001
	v234.87l-7.358,5.611l-31.109-33.309l19.462-32.438c1.984-3.308,1.89-7.462-0.244-10.676c-13.14-19.789-22.31-41.723-27.256-65.191
	c-0.811-3.846-3.799-6.86-7.638-7.704L20,277.961v-43.917l41.475-9.105c3.868-0.85,6.87-3.901,7.656-7.782
	c4.781-23.603,13.937-45.797,27.212-65.967c2.113-3.211,2.199-7.348,0.222-10.644l-18.893-31.485l31.387-31.388l31.485,18.894
	c3.297,1.977,7.434,1.892,10.643-0.222c20.17-13.275,42.365-22.432,65.968-27.213c3.881-0.786,6.933-3.788,7.782-7.656l9.105-41.475
	h43.915l9.105,41.475c0.85,3.868,3.901,6.87,7.782,7.656c23.603,4.781,45.797,13.938,65.967,27.213
	c3.212,2.111,7.348,2.198,10.644,0.222l31.485-18.894l31.388,31.388l-18.894,31.485c-1.977,3.296-1.891,7.433,0.222,10.644
	c13.275,20.17,22.431,42.364,27.213,65.967c0.786,3.881,3.789,6.933,7.656,7.782L492,234.044V277.961z"/>
<path d="M346,206.001H166c-5.523,0-10,4.478-10,10v80c0,5.522,4.477,10,10,10h180c5.522,0,10-4.478,10-10v-80
	C356,210.479,351.522,206.001,346,206.001z M336,286.001H176v-60h160V286.001z"/>
<path d="M346,326.001H166c-5.523,0-10,4.478-10,10v123c0,5.522,4.477,10,10,10h180c5.522,0,10-4.478,10-10v-123
	C356,330.479,351.522,326.001,346,326.001z M276,449.001h-40v-43h40V449.001z M276,386.001h-40v-40h40V386.001z M216,346.001v40h-40
	v-40H216z M176,406.001h40v43h-40V406.001z M336,449.001h-40v-103h40V449.001z"/>
<path d="M206,266.001h60c5.522,0,10-4.478,10-10s-4.478-10-10-10h-60c-5.523,0-10,4.478-10,10S200.477,266.001,206,266.001z"/>
<g>
</g>
<g>
</g>
<g>
</g>
<g>
</g>
<g>
</g>
<g>
</g>
<g>
</g>
<g>
</g>
<g>
</g>
<g>
</g>
<g>
</g>
<g>
</g>
<g>
</g>
<g>
</g>
<g>
</g>
</svg>
