<?xml version="1.0" encoding="iso-8859-1"?>
<!-- Generator: Adobe Illustrator 19.0.0, SVG Export Plug-In . SVG Version: 6.00 Build 0)  -->
<svg version="1.1" id="Capa_1" xmlns="http://www.w3.org/2000/svg" xmlns:xlink="http://www.w3.org/1999/xlink" x="0px" y="0px"
	 viewBox="0 0 512 512" style="enable-background:new 0 0 512 512;" xml:space="preserve">
<path style="fill:#FF8700;" d="M404.86,425.3c-2.84,3.6-7.18,5.7-11.77,5.7H118.91c-4.59,0-8.93-2.1-11.77-5.7
	c-2.84-3.59-3.89-8.3-2.83-12.76l16.62-70.13l19.72-83.2l35.19-148.49l23.5-99.18C200.94,4.78,206.99,0,213.94,0h84.12
	c6.95,0,13,4.78,14.6,11.54l4.21,17.75l26.72,112.75l14.97,63.19l26.72,112.74l22.41,94.57C408.75,417,407.7,421.71,404.86,425.3z"
	/>
<path style="fill:#E47500;" d="M407.69,412.54l-22.41-94.57l-26.72-112.74l-14.97-63.19L316.87,29.29l-4.21-17.75
	C311.06,4.78,305.01,0,298.06,0H256v431h137.09c4.59,0,8.93-2.1,11.77-5.7C407.7,421.71,408.75,417,407.69,412.54z"/>
<g>
	<polygon style="fill:#DFDEF5;" points="343.59,142.04 140.65,259.21 175.84,110.72 316.87,29.29 	"/>
	<path style="fill:#DFDEF5;" d="M385.28,317.97L189.5,431h-70.59c-4.59,0-8.93-2.1-11.77-5.7c-2.84-3.59-3.89-8.3-2.83-12.76
		l16.62-70.13l237.63-137.18L385.28,317.97z"/>
</g>
<polygon style="fill:#D2D0F2;" points="358.56,205.23 256,264.436 256,392.607 385.28,317.97 "/>
<path style="fill:#FF9F00;" d="M456,401H56c-8.284,0-15,6.716-15,15v81c0,8.284,6.716,15,15,15h400c8.284,0,15-6.716,15-15v-81
	C471,407.716,464.284,401,456,401z"/>
<path style="fill:#FF8700;" d="M456,401H256v111h200c8.284,0,15-6.716,15-15v-81C471,407.716,464.284,401,456,401z"/>
<polygon style="fill:#D2D0F2;" points="316.87,29.29 256,64.436 256,192.611 343.59,142.04 "/>
<g>
</g>
<g>
</g>
<g>
</g>
<g>
</g>
<g>
</g>
<g>
</g>
<g>
</g>
<g>
</g>
<g>
</g>
<g>
</g>
<g>
</g>
<g>
</g>
<g>
</g>
<g>
</g>
<g>
</g>
</svg>
